<svg id="Calque_1" data-name="Calque 1" xmlns="http://www.w3.org/2000/svg" viewBox="0 0 40.72 25.83"><defs><style>.cls-1{fill:#139fc6;}.cls-2{fill:#17323f;}</style></defs><title>Menu burger carré</title><rect class="cls-1" width="40.67" height="0.95"/><rect class="cls-1" y="4.45" width="40.67" height="0.95"/><rect class="cls-1" y="9" width="40.67" height="0.95"/><path class="cls-2" d="M5,23.83H5l3.18-8.07H9.84v9.93H8.49V18.25h0l-3,7.45H4.51L1.41,18h0v7.69H0V15.76H1.8Z"/><path class="cls-2" d="M18.81,21.09H14.74v3.55h4.77v1.05H13.39V15.76h6v1.06H14.74V20h4.07Z"/><path class="cls-2" d="M29.84,25.69H28.49l-4.78-7.58h0v7.57H22.33V15.76h1.34l4.78,7.58,0,0V15.76h1.35Z"/><path class="cls-2" d="M40.72,15.76v6.6a3.19,3.19,0,0,1-1.07,2.55,4,4,0,0,1-2.74.92,3.78,3.78,0,0,1-2.64-.92,3.25,3.25,0,0,1-1-2.55v-6.6h1.34v6.6a2.42,2.42,0,0,0,.65,1.78,2.3,2.3,0,0,0,1.68.64,2.49,2.49,0,0,0,1.78-.64,2.32,2.32,0,0,0,.68-1.78v-6.6Z"/></svg>