<?xml version="1.0" encoding="utf-8"?>
<!-- Generator: Adobe Illustrator 22.1.0, SVG Export Plug-In . SVG Version: 6.00 Build 0)  -->
<svg version="1.1" id="Calque_1" xmlns="http://www.w3.org/2000/svg" xmlns:xlink="http://www.w3.org/1999/xlink" x="0px" y="0px"
	 viewBox="0 0 283.5 283.5" style="enable-background:new 0 0 283.5 283.5;" xml:space="preserve">
<style type="text/css">
	.st0{fill:#17323F;}
	.st1{enable-background:new    ;}
	.st2{fill:#FFFFFF;}
	.st3{fill:#60C6F2;}
</style>
<g transform="matrix(1, 0, 0, 1, -759, -692)">
	<path id="Tracé_1-2" class="st0" d="M900.8,693.5c77.5,0,140.2,62.8,140.2,140.3S978.3,974,900.8,974s-140.3-62.7-140.3-140.2
		S823.3,693.5,900.8,693.5z"/>
</g>
<g class="st1">
	<path class="st2" d="M93.8,191.7L93.8,191.7l8.7-22.8h6.3v29.7h-5v-21.3h-0.1l-8.2,21.3h-3.4l-8.3-21.8h-0.1v21.7h-5v-29.7h6.5
		L93.8,191.7z"/>
	<path class="st2" d="M136.8,185.2h-11.6v9.4h13.7v4h-18.7V169h18.5v4h-13.6v8.4h11.6L136.8,185.2L136.8,185.2z"/>
	<path class="st2" d="M171.8,198.6h-5l-13.1-21.4h-0.1v21.3h-5v-29.7h5l13.1,21.4h0.1v-21.3h5V198.6z"/>
	<path class="st2" d="M206,169v19.5c0,3.3-1.1,5.9-3.3,7.8s-5,2.8-8.4,2.8s-6.1-0.9-8.2-2.8c-2.1-1.9-3.2-4.5-3.2-7.8V169h5v19.5
		c0,2.1,0.6,3.7,1.8,4.9c1.2,1.1,2.7,1.7,4.7,1.7s3.6-0.6,4.9-1.7c1.2-1.1,1.8-2.8,1.8-4.9V169H206z"/>
</g>
<rect x="78" y="132.7" class="st3" width="127" height="6.5"/>
<rect x="78" y="112.2" class="st3" width="127" height="6.5"/>
<rect x="78" y="91.8" class="st3" width="127" height="6.5"/>
</svg>
