<?xml version="1.0" encoding="utf-8"?>
<!-- Generator: Adobe Illustrator 27.5.0, SVG Export Plug-In . SVG Version: 6.00 Build 0)  -->
<svg version="1.1" id="Calque_1" xmlns="http://www.w3.org/2000/svg" xmlns:xlink="http://www.w3.org/1999/xlink" x="0px" y="0px"
	 viewBox="0 0 283.5 113.4" style="enable-background:new 0 0 283.5 113.4;" xml:space="preserve">
<style type="text/css">
	.st0{fill:#FFFFFF;}
</style>
<g>
	<path class="st0" d="M117.7,95.1c-1.1,0-1.7,0.8-1.8,1.8h3.5C119.3,95.9,118.8,95.1,117.7,95.1z"/>
	<path class="st0" d="M145.6,95.1c-1.1,0-1.7,0.8-1.8,1.8h3.5C147.2,95.9,146.8,95.1,145.6,95.1z"/>
	<path class="st0" d="M185.5,95.1c-1.1,0-1.7,0.8-1.8,1.8h3.5C187.1,95.9,186.7,95.1,185.5,95.1z"/>
	<path class="st0" d="M124.1,41.4c-8.4,0-11.8,6.6-11.8,14.1c0,7.4,3.4,14,11.8,14c8.4,0,11.8-6.6,11.8-14
		C135.9,48,132.4,41.4,124.1,41.4z"/>
	<path class="st0" d="M86.6,99.3c0,0.7,0.6,1,1.3,1c0.6,0,1.1-0.3,1.4-0.7c0.3-0.4,0.4-1,0.4-1.6h-0.9C87.9,98,86.6,98.1,86.6,99.3z
		"/>
	<path class="st0" d="M50.9,92.7h-1.2v7.2h1.2c1.8,0,3.5-1.3,3.5-3.6C54.4,94,52.7,92.7,50.9,92.7z"/>
	<path class="st0" d="M76.7,95.2c-1.3,0-1.8,1.4-1.8,2.5c0,1.1,0.4,2.5,1.8,2.5c1.3,0,1.7-1.5,1.7-2.5C78.4,96.6,78,95.2,76.7,95.2z
		"/>
	<path class="st0" d="M64.6,95.1c-1.1,0-1.7,0.8-1.8,1.8h3.5C66.2,95.9,65.8,95.1,64.6,95.1z"/>
	<path class="st0" d="M0,0v113.4h283.5V0H0z M23.5,101.6h-2V90.2h2V101.6z M32.4,100.3c1,0,1.8-0.4,2.6-0.8v1.7
		c-0.7,0.4-1.6,0.6-2.7,0.6c-2.6,0-4.1-1.5-4.1-4c0-2.3,1.2-4.1,3.6-4.1c2.9,0,3.7,2,3.7,4.7h-5.4C30.2,99.6,31.1,100.3,32.4,100.3z
		 M21.6,80.5V13.5l23.9,0L69.4,59h0.2l-0.3-45.6l17.2,0v67.1H63.1L38.5,34.7h-0.2l0.6,45.8H21.6z M66.8,90.5l-2.1,2.2h-1.3l1.3-2.2
		H66.8z M50.5,101.6h-2.9V91h2.9c3.2,0,6.1,1.1,6.1,5.3C56.6,100.5,53.7,101.6,50.5,101.6z M65,100.3c1,0,1.8-0.4,2.6-0.8v1.7
		c-0.7,0.4-1.6,0.6-2.7,0.6c-2.6,0-4.1-1.5-4.1-4c0-2.3,1.2-4.1,3.6-4.1c2.9,0,3.7,2,3.7,4.7h-5.4C62.9,99.6,63.8,100.3,65,100.3z
		 M77.2,101.8c-0.9,0-1.6-0.2-2.3-1.1h0v4.1h-2v-11h1.9v1.1h0c0.5-0.8,1.2-1.3,2.4-1.3c2.4,0,3.3,1.9,3.3,4.1
		C80.5,99.8,79.6,101.8,77.2,101.8z M89.9,101.6c-0.1-0.4-0.1-0.9-0.1-1.2h0c-0.5,0.9-1.5,1.3-2.4,1.3c-1.4,0-2.7-0.8-2.7-2.3
		c0-1.2,0.6-1.8,1.3-2.2c0.8-0.4,1.8-0.5,2.6-0.5h1.1c0-1.3-0.6-1.7-1.8-1.7c-0.9,0-1.7,0.3-2.4,0.8l-0.1-1.7
		c0.8-0.4,1.8-0.6,2.7-0.6c2.4,0,3.4,1,3.4,3.3v1c0,0.8,0,1.4,0,2c0,0.6,0,1.1,0.1,1.7H89.9z M101.2,95.7c-0.2-0.1-0.5-0.2-0.9-0.2
		c-1.7,0-1.7,2.1-1.7,3.2v2.9h-2v-7.8h1.8v1.8h0c0.1-0.7,0.9-2,2.1-2c0.2,0,0.4,0,0.6,0.1V95.7z M108.6,101.8c-1.6,0-2.5-1-2.5-2.5
		v-4h-1.5v-1.5h1.5v-1.6l2-0.7v2.2h1.8v1.5h-1.8v3.6c0,0.7,0.2,1.3,1,1.3c0.4,0,0.7-0.1,0.9-0.2l0.1,1.6
		C109.7,101.7,109.2,101.8,108.6,101.8z M118.1,100.3c1,0,1.8-0.4,2.6-0.8v1.7c-0.7,0.4-1.6,0.6-2.7,0.6c-2.6,0-4.1-1.5-4.1-4
		c0-2.3,1.2-4.1,3.6-4.1c2.9,0,3.7,2,3.7,4.7h-5.4C115.9,99.6,116.8,100.3,118.1,100.3z M93.5,55.5c0-16.6,13.2-26.2,30.6-26.2
		c17.4,0,30.6,9.6,30.6,26.2c0,16.5-13.2,26.1-30.6,26.1C106.7,81.7,93.5,72.1,93.5,55.5z M137.3,101.6h-2v-4.7c0-0.7,0-1.8-1.2-1.8
		c-1.3,0-1.5,1.6-1.5,2.6v3.8h-2v-4.7c0-0.7,0-1.8-1.2-1.8c-1.3,0-1.5,1.6-1.5,2.6v3.8h-2v-7.8h1.9v1.1h0c0.6-1,1.6-1.3,2.3-1.3
		c1.1,0,1.9,0.4,2.3,1.4c0.5-0.9,1.5-1.4,2.4-1.4c1.9,0,2.5,1.3,2.5,3.1V101.6z M146,100.3c1,0,1.8-0.4,2.6-0.8v1.7
		c-0.7,0.4-1.6,0.6-2.7,0.6c-2.6,0-4.1-1.5-4.1-4c0-2.3,1.2-4.1,3.6-4.1c2.9,0,3.7,2,3.7,4.7h-5.4C143.9,99.6,144.8,100.3,146,100.3
		z M161,101.6h-2v-4.2c0-1,0-2.2-1.3-2.2c-1.5,0-1.8,1.6-1.8,2.6v3.8h-2v-7.8h1.9v1.1h0c0.6-0.9,1.5-1.2,2.6-1.2
		c1.8,0,2.7,1.3,2.7,3.1V101.6z M169.3,101.8c-1.6,0-2.5-1-2.5-2.5v-4h-1.5v-1.5h1.5v-1.6l2-0.7v2.2h1.8v1.5h-1.8v3.6
		c0,0.7,0.2,1.3,1,1.3c0.4,0,0.7-0.1,0.9-0.2l0.1,1.6C170.3,101.7,169.9,101.8,169.3,101.8z M186,100.3c1,0,1.8-0.4,2.6-0.8v1.7
		c-0.7,0.4-1.6,0.6-2.7,0.6c-2.6,0-4.1-1.5-4.1-4c0-2.3,1.2-4.1,3.6-4.1c2.9,0,3.7,2,3.7,4.7h-5.4C183.8,99.6,184.7,100.3,186,100.3
		z M195.6,101.8c-0.8,0-1.6-0.1-2.3-0.3l0.1-1.7c0.6,0.3,1.3,0.5,2,0.5c0.5,0,1.3-0.2,1.3-1c0-1.5-3.5-0.5-3.5-3.3
		c0-1.7,1.5-2.4,3.1-2.4c1,0,1.6,0.2,2.2,0.3l-0.1,1.5c-0.6-0.2-1.1-0.3-1.8-0.3c-0.5,0-1.2,0.2-1.2,0.9c0,1.2,3.5,0.5,3.5,3.3
		C198.9,101,197.3,101.8,195.6,101.8z M199,44.3c-2-0.6-4-0.6-6.2-0.6c-8.5,0-13.2,5.9-13.2,15.7v21.1h-18.2V30.5H178v9.2h0.2
		c3.1-6.3,7.7-10.4,15.5-10.4c2.1,0,4.3,0.3,6.2,0.6L199,44.3z M206.6,101.8c-1.6,0-2.5-1-2.5-2.5v-4h-1.5v-1.5h1.5v-1.6l2-0.7v2.2
		h1.8v1.5h-1.8v3.6c0,0.7,0.2,1.3,1,1.3c0.4,0,0.7-0.1,0.9-0.2l0.1,1.6C207.7,101.7,207.2,101.8,206.6,101.8z M221.7,101.6h-2V90.2
		h2V101.6z M231.7,101.6c-0.1-0.4-0.1-0.9-0.1-1.2h0c-0.5,0.9-1.5,1.3-2.4,1.3c-1.4,0-2.7-0.8-2.7-2.3c0-1.2,0.6-1.8,1.3-2.2
		c0.8-0.4,1.8-0.5,2.6-0.5h1.1c0-1.3-0.6-1.7-1.8-1.7c-0.9,0-1.7,0.3-2.4,0.8l-0.1-1.7c0.8-0.4,1.8-0.6,2.7-0.6c2.4,0,3.4,1,3.4,3.3
		v1c0,0.8,0,1.4,0,2c0,0.6,0,1.1,0.1,1.7H231.7z M227.7,90.5h2.1l1.3,2.2h-1.3L227.7,90.5z M258.7,98.8c-1,0-1.9-0.7-2.2-1.6h-15.2
		v-1.4h15.2c0.3-0.9,1.2-1.6,2.2-1.6c1.3,0,2.3,1,2.3,2.3C261,97.7,260,98.8,258.7,98.8z M261.4,80.5l-16.8,0v-8.9h-0.2
		c-2.3,5.6-9.7,10.1-18.1,10.1c-15.6,0-24-12.3-24-27.1c0-12.3,8-25.3,22.5-25.3c7.3,0,13.4,1.8,18.1,7.6h0.2V8.5l18.3,0V80.5z"/>
	<path class="st0" d="M228.3,99.3c0,0.7,0.6,1,1.3,1c0.6,0,1.1-0.3,1.4-0.7c0.3-0.4,0.4-1,0.4-1.6h-0.9
		C229.7,98,228.3,98.1,228.3,99.3z"/>
	<path class="st0" d="M232.1,42.6c-7.1,0-11,5.8-11,12.4c0,8,4.1,13.5,11,13.5c6.1,0,11.1-5.5,11.1-12.8
		C243.2,48,238.8,42.6,232.1,42.6z"/>
	<path class="st0" d="M31.9,95.1c-1.1,0-1.7,0.8-1.8,1.8h3.5C33.5,95.9,33.1,95.1,31.9,95.1z"/>
</g>
</svg>
