<?xml version="1.0" encoding="utf-8"?>
<!-- Generator: Adobe Illustrator 27.5.0, SVG Export Plug-In . SVG Version: 6.00 Build 0)  -->
<svg version="1.1" id="Calque_1" xmlns="http://www.w3.org/2000/svg" xmlns:xlink="http://www.w3.org/1999/xlink" x="0px" y="0px"
	 viewBox="0 0 283.5 113.4" style="enable-background:new 0 0 283.5 113.4;" xml:space="preserve">
<style type="text/css">
	.st0{fill:#139FC6;}
	.st1{fill:#FFFFFF;}
</style>
<g>
	<rect class="st0" width="283.5" height="113.4"/>
	<g>
		<g>
			<polygon class="st1" points="69.6,59 69.4,59 45.6,13.5 21.6,13.5 21.6,80.5 38.9,80.5 38.3,34.7 38.5,34.7 63.1,80.5 86.4,80.5 
				86.4,13.5 69.3,13.5 			"/>
			<path class="st1" d="M199.9,29.9c-1.8-0.3-4-0.6-6.2-0.6c-7.9,0-12.4,4-15.5,10.4H178v-9.2h-16.5v50.1h18.2V59.4
				c0-9.8,4.7-15.7,13.2-15.7c2.1,0,4.1,0,6.2,0.6L199.9,29.9z"/>
			<path class="st1" d="M243.1,8.5v28.4h-0.2c-4.6-5.8-10.8-7.6-18.1-7.6c-14.5,0-22.5,13-22.5,25.3c0,14.8,8.4,27.1,24,27.1
				c8.4,0,15.7-4.5,18.1-10.1h0.2v8.9l16.8,0V8.5L243.1,8.5z M232.1,68.4c-6.9,0-11-5.5-11-13.5c0-6.6,3.9-12.4,11-12.4
				c6.7,0,11.1,5.5,11.1,13.1C243.2,62.9,238.2,68.4,232.1,68.4z"/>
			<path class="st1" d="M124.1,29.3c-17.4,0-30.6,9.6-30.6,26.2c0,16.5,13.2,26.1,30.6,26.1c17.4,0,30.6-9.6,30.6-26.1
				C154.6,38.9,141.4,29.3,124.1,29.3z M124.1,69.6c-8.4,0-11.8-6.6-11.8-14c0-7.5,3.4-14.1,11.8-14.1c8.4,0,11.8,6.6,11.8,14.1
				C135.9,62.9,132.4,69.6,124.1,69.6z"/>
		</g>
		<g>
			<g>
				<path class="st1" d="M21.5,90.2h2v11.4h-2V90.2z"/>
				<path class="st1" d="M35,101.1c-0.7,0.4-1.6,0.6-2.7,0.6c-2.6,0-4.1-1.5-4.1-4c0-2.3,1.2-4.1,3.6-4.1c2.9,0,3.7,2,3.7,4.7h-5.4
					c0.1,1.3,1,2,2.2,2c1,0,1.8-0.4,2.6-0.8V101.1z M33.6,96.9c-0.1-1-0.5-1.8-1.7-1.8s-1.7,0.8-1.8,1.8H33.6z"/>
				<path class="st1" d="M47.6,91h2.9c3.2,0,6.1,1.1,6.1,5.3c0,4.2-2.9,5.3-6.1,5.3h-2.9V91z M49.7,99.9h1.2c1.8,0,3.5-1.3,3.5-3.6
					c0-2.3-1.7-3.6-3.5-3.6h-1.2V99.9z"/>
				<path class="st1" d="M67.6,101.1c-0.7,0.4-1.6,0.6-2.7,0.6c-2.6,0-4.1-1.5-4.1-4c0-2.3,1.2-4.1,3.6-4.1c2.9,0,3.7,2,3.7,4.7
					h-5.4c0.1,1.3,1,2,2.2,2c1,0,1.8-0.4,2.6-0.8V101.1z M66.3,96.9c-0.1-1-0.5-1.8-1.7-1.8c-1.1,0-1.7,0.8-1.8,1.8H66.3z
					 M64.7,90.5h2.1l-2.1,2.2h-1.3L64.7,90.5z"/>
				<path class="st1" d="M72.8,93.8h1.9v1.1h0c0.5-0.8,1.2-1.3,2.4-1.3c2.4,0,3.3,1.9,3.3,4.1c0,2.1-0.9,4.1-3.3,4.1
					c-0.9,0-1.6-0.2-2.3-1.1h0v4.1h-2V93.8z M74.9,97.7c0,1.1,0.4,2.5,1.8,2.5c1.3,0,1.7-1.5,1.7-2.5c0-1-0.4-2.5-1.7-2.5
					C75.4,95.2,74.9,96.6,74.9,97.7z"/>
				<path class="st1" d="M85.5,94.2c0.8-0.4,1.8-0.6,2.7-0.6c2.4,0,3.4,1,3.4,3.3v1c0,0.8,0,1.4,0,2c0,0.6,0,1.1,0.1,1.7h-1.8
					c-0.1-0.4-0.1-0.9-0.1-1.2h0c-0.5,0.9-1.5,1.3-2.4,1.3c-1.4,0-2.7-0.8-2.7-2.3c0-1.2,0.6-1.8,1.3-2.2c0.8-0.4,1.8-0.5,2.6-0.5
					h1.1c0-1.3-0.6-1.7-1.8-1.7c-0.9,0-1.7,0.3-2.4,0.8L85.5,94.2z M87.8,100.3c0.6,0,1.1-0.3,1.4-0.7c0.3-0.4,0.4-1,0.4-1.6h-0.9
					c-0.9,0-2.3,0.2-2.3,1.3C86.6,100,87.1,100.3,87.8,100.3z"/>
				<path class="st1" d="M96.6,93.8h1.8v1.8h0c0.1-0.7,0.9-2,2.1-2c0.2,0,0.4,0,0.6,0.1v2c-0.2-0.1-0.5-0.2-0.9-0.2
					c-1.7,0-1.7,2.1-1.7,3.2v2.9h-2V93.8z"/>
				<path class="st1" d="M106.2,95.3h-1.5v-1.5h1.5v-1.6l2-0.7v2.2h1.8v1.5h-1.8v3.6c0,0.7,0.2,1.3,1,1.3c0.4,0,0.7-0.1,0.9-0.2
					l0.1,1.6c-0.4,0.1-0.9,0.2-1.5,0.2c-1.6,0-2.5-1-2.5-2.5V95.3z"/>
				<path class="st1" d="M120.7,101.1c-0.7,0.4-1.6,0.6-2.7,0.6c-2.6,0-4.1-1.5-4.1-4c0-2.3,1.2-4.1,3.6-4.1c2.9,0,3.7,2,3.7,4.7
					h-5.4c0.1,1.3,1,2,2.2,2c1,0,1.8-0.4,2.6-0.8V101.1z M119.3,96.9c-0.1-1-0.5-1.8-1.7-1.8s-1.7,0.8-1.8,1.8H119.3z"/>
				<path class="st1" d="M125.8,93.8h1.9v1.1h0c0.6-1,1.6-1.3,2.3-1.3c1.1,0,1.9,0.4,2.3,1.4c0.5-0.9,1.5-1.4,2.4-1.4
					c1.9,0,2.5,1.3,2.5,3.1v4.9h-2v-4.7c0-0.7,0-1.8-1.2-1.8c-1.3,0-1.5,1.6-1.5,2.6v3.8h-2v-4.7c0-0.7,0-1.8-1.2-1.8
					c-1.3,0-1.5,1.6-1.5,2.6v3.8h-2V93.8z"/>
				<path class="st1" d="M148.6,101.1c-0.7,0.4-1.6,0.6-2.7,0.6c-2.6,0-4.1-1.5-4.1-4c0-2.3,1.2-4.1,3.6-4.1c2.9,0,3.7,2,3.7,4.7
					h-5.4c0.1,1.3,1,2,2.2,2c1,0,1.8-0.4,2.6-0.8V101.1z M147.3,96.9c-0.1-1-0.5-1.8-1.7-1.8c-1.1,0-1.7,0.8-1.8,1.8H147.3z"/>
				<path class="st1" d="M153.8,93.8h1.9v1.1h0c0.6-0.9,1.5-1.2,2.6-1.2c1.8,0,2.7,1.3,2.7,3.1v4.9h-2v-4.2c0-1,0-2.2-1.3-2.2
					c-1.5,0-1.8,1.6-1.8,2.6v3.8h-2V93.8z"/>
				<path class="st1" d="M166.8,95.3h-1.5v-1.5h1.5v-1.6l2-0.7v2.2h1.8v1.5h-1.8v3.6c0,0.7,0.2,1.3,1,1.3c0.4,0,0.7-0.1,0.9-0.2
					l0.1,1.6c-0.4,0.1-0.9,0.2-1.5,0.2c-1.6,0-2.5-1-2.5-2.5V95.3z"/>
				<path class="st1" d="M188.5,101.1c-0.7,0.4-1.6,0.6-2.7,0.6c-2.6,0-4.1-1.5-4.1-4c0-2.3,1.2-4.1,3.6-4.1c2.9,0,3.7,2,3.7,4.7
					h-5.4c0.1,1.3,1,2,2.2,2c1,0,1.8-0.4,2.6-0.8V101.1z M187.2,96.9c-0.1-1-0.5-1.8-1.7-1.8c-1.1,0-1.7,0.8-1.8,1.8H187.2z"/>
				<path class="st1" d="M198.4,95.4c-0.6-0.2-1.1-0.3-1.8-0.3c-0.5,0-1.2,0.2-1.2,0.9c0,1.2,3.5,0.5,3.5,3.3c0,1.8-1.6,2.5-3.3,2.5
					c-0.8,0-1.6-0.1-2.3-0.3l0.1-1.7c0.6,0.3,1.3,0.5,2,0.5c0.5,0,1.3-0.2,1.3-1c0-1.5-3.5-0.5-3.5-3.3c0-1.7,1.5-2.4,3.1-2.4
					c1,0,1.6,0.2,2.2,0.3L198.4,95.4z"/>
				<path class="st1" d="M204.2,95.3h-1.5v-1.5h1.5v-1.6l2-0.7v2.2h1.8v1.5h-1.8v3.6c0,0.7,0.2,1.3,1,1.3c0.4,0,0.7-0.1,0.9-0.2
					l0.1,1.6c-0.4,0.1-0.9,0.2-1.5,0.2c-1.6,0-2.5-1-2.5-2.5V95.3z"/>
				<path class="st1" d="M219.7,90.2h2v11.4h-2V90.2z"/>
				<path class="st1" d="M227.3,94.2c0.8-0.4,1.8-0.6,2.7-0.6c2.4,0,3.4,1,3.4,3.3v1c0,0.8,0,1.4,0,2c0,0.6,0,1.1,0.1,1.7h-1.8
					c-0.1-0.4-0.1-0.9-0.1-1.2h0c-0.5,0.9-1.5,1.3-2.4,1.3c-1.4,0-2.7-0.8-2.7-2.3c0-1.2,0.6-1.8,1.3-2.2c0.8-0.4,1.8-0.5,2.6-0.5
					h1.1c0-1.3-0.6-1.7-1.8-1.7c-0.9,0-1.7,0.3-2.4,0.8L227.3,94.2z M231.1,92.7h-1.3l-2.1-2.2h2.1L231.1,92.7z M229.6,100.3
					c0.6,0,1.1-0.3,1.4-0.7c0.3-0.4,0.4-1,0.4-1.6h-0.9c-0.9,0-2.3,0.2-2.3,1.3C228.3,100,228.9,100.3,229.6,100.3z"/>
			</g>
			<path class="st1" d="M258.7,94.1c-1,0-1.9,0.7-2.2,1.6h-15.2v1.4h15.2c0.3,0.9,1.2,1.6,2.2,1.6c1.3,0,2.3-1,2.3-2.3
				S260,94.1,258.7,94.1z"/>
		</g>
	</g>
</g>
</svg>
