<?xml version="1.0" encoding="utf-8"?>
<!-- Generator: Adobe Illustrator 27.5.0, SVG Export Plug-In . SVG Version: 6.00 Build 0)  -->
<svg version="1.1" id="Calque_1" xmlns="http://www.w3.org/2000/svg" xmlns:xlink="http://www.w3.org/1999/xlink" x="0px" y="0px"
	 viewBox="0 0 80 80" style="enable-background:new 0 0 80 80;" xml:space="preserve">
<style type="text/css">
	.st0{fill:#60C6F2;}
	.st1{fill:#17323F;}
	.st2{fill:none;stroke:#000000;stroke-width:0.75;stroke-miterlimit:10;}
</style>
<g id="Bouton_Menu_1_" transform="translate(9 9)">
	<g transform="matrix(1, 0, 0, 1, -9, -9)">
		<path id="Tracé_1925-2_2_" class="st0" d="M40,0c22.1,0,40,17.9,40,40c0,22.1-17.9,40-40,40C17.9,80,0,62.1,0,40
			C0,17.9,17.9,0,40,0C40,0,40,0,40,0"/>
	</g>
	<path id="Tracé_1926_1_" class="st1" d="M17.3,45.2L17.3,45.2l2.5-6.5h1.8v8.5h-1.4v-6.1h0l-2.3,6.1h-1L14.5,41h0v6.2H13v-8.5h1.9
		L17.3,45.2z"/>
	<path id="Tracé_1927_1_" class="st1" d="M29.6,43.4h-3.3v2.7h3.9v1.1h-5.3v-8.4h5.3v1.1h-3.9v2.4h3.3L29.6,43.4z"/>
	<path id="Tracé_1928_1_" class="st1" d="M39.6,47.2h-1.4l-3.7-6.1h0v6.1H33v-8.5h1.4l3.7,6.1h0v-6.1h1.4V47.2z"/>
	<path id="Tracé_1929_1_" class="st1" d="M49.3,38.8v5.6c0,0.8-0.3,1.7-0.9,2.2c-0.7,0.6-1.5,0.8-2.4,0.8c-0.9,0-1.7-0.2-2.3-0.8
		c-0.6-0.6-1-1.4-0.9-2.2v-5.6h1.4v5.6c-0.1,0.9,0.6,1.8,1.6,1.9c0.1,0,0.2,0,0.3,0c0.5,0,1-0.2,1.4-0.5c0.4-0.4,0.5-0.9,0.5-1.4
		v-5.6H49.3z"/>
	<rect id="Rectangle_352_2_" x="12.8" y="28.4" class="st1" width="36.2" height="1.9"/>
	<rect id="Rectangle_353_1_" x="12.8" y="22.6" class="st1" width="36.2" height="1.9"/>
	<rect id="Rectangle_354_2_" x="12.8" y="16.8" class="st1" width="36.2" height="1.9"/>
</g>
<line class="st2" x1="21.5" y1="58.5" x2="58.5" y2="58.5"/>
</svg>
