<svg role="img" alt="" aria-hidden="true" focusable="false" data-name="Calque 1" id="Calque_1" viewBox="0 0 283.5 283.5" xmlns="http://www.w3.org/2000/svg">
                      <path d="M261.5,124.6c-5.7-3.5-12.2-2.5-17.4,2.7-37.4,37.4-74.8,75-112.4,112.3-15.1,15-33.5,19.4-53.8,12.9C41.8,240.8,30.2,195,56.2,167.4c6.8-7.2,13.8-14,20.8-20.9h0l1.2-1.2,48-48,44.4-44.4c4.9-4.9,9.7-9.8,14.6-14.6,7.8-7.7,17.2-11.1,28-9.4,12.9,2,22,9.3,26.2,21.7,4.3,12.6,1.5,24-7.6,33.6-5.1,5.4-10.5,10.6-15.8,15.9L168.1,148c-9.2,9.2-18.4,18.5-27.7,27.6l-5.3,5.4c-1.4,1.3-2.6,2.8-4,4-2.8,2.5-5.3,5.3-8,7.9-1.5,1.4-3.1,2.6-4.6,3.9-7.7,4.1-14.1-1.3-14.5-1.7-5.6-5.4-5.7-13.3-.3-18.8l84-84c4.2-4.2,8.5-8.3,12.5-12.7,5.1-5.8,3.7-15-2.7-19.4-5.7-3.9-12.6-3.1-17.8,2.1L144.5,97.5c-19.9,19.9-39.9,39.8-59.8,59.8C75,167,71.3,178.6,73.3,192c2.7,18.7,19.6,33.3,38.6,33.3a39.87,39.87,0,0,0,29.3-12.2L250.5,103.8a59.56,59.56,0,0,0,15.7-27,58.78,58.78,0,0,0,1.9-18.2V57.5a48.59,48.59,0,0,0-.7-5.5C262.8,28,249,11.7,225.7,4.5c-21-6.5-40.4-2.1-56.8,12.6-10.2,9.1-19.5,19.2-29.2,28.9Q89.6,95.95,39.6,146c-15.1,15-23.5,33.1-24.1,54.4-.7,25.5,8.8,46.9,28.3,63.3,17.2,14.6,37.4,20.4,59.8,18a76.42,76.42,0,0,0,46.2-21.8c11.9-11.7,23.6-23.5,35.4-35.3,12.8-12.7,25.5-25.5,38.2-38.2l39.9-39.9a19.61,19.61,0,0,0,3.6-5.4C269.5,135.1,266.8,127.9,261.5,124.6Z"></path>
                    </svg>